<svg xmlns="http://www.w3.org/2000/svg" viewBox="0 0 1161.39 256" role="img" aria-label="The Hack Collective"><path fill="#006bff" d="M 45.75 83 L 108.25 83 A 13.75 13.75 0 0 1 122 96.75 L 122 99.2 C 122 105.68 126.32 110 132.8 110 C 142.74 110 150.8 118.06 150.8 128 C 150.8 137.94 142.74 146 132.8 146 C 126.32 146 122 150.32 122 156.8 L 122 159.25 A 13.75 13.75 0 0 1 108.25 173 L 105.8 173 C 99.32 173 95 168.68 95 162.2 C 95 152.26 86.94 144.2 77 144.2 C 67.06 144.2 59 152.26 59 162.2 C 59 168.68 54.68 173 48.2 173 L 45.75 173 A 13.75 13.75 0 0 1 32 159.25 L 32 96.75 A 13.75 13.75 0 0 1 45.75 83 Z"/><path fill="#171717" transform="translate(186.8 164)" d="M23.32 0V-61.96H1.22V-72H56.38V-61.96H34.28V0ZM62.57 0V-72H73.32V-46.14Q75.45 -50.81 79.66 -52.99Q83.86 -55.17 89.14 -55.17Q97.96 -55.17 102.63 -49.44Q107.29 -43.71 107.29 -34.68V0H96.54V-31.84Q96.54 -46.14 86.3 -46.14Q80.32 -46.14 76.82 -42.44Q73.32 -38.74 73.32 -31.64V0ZM143.49 1.22Q135.58 1.22 129.85 -2.28Q124.12 -5.78 121.03 -12.12Q117.94 -18.46 117.94 -26.97Q117.94 -35.49 121.03 -41.83Q124.12 -48.17 129.8 -51.67Q135.48 -55.17 143.19 -55.17Q150.49 -55.17 156.07 -51.77Q161.65 -48.37 164.74 -41.98Q167.83 -35.59 167.83 -26.57V-23.83H129.09Q129.5 -15.92 133.3 -11.97Q137.1 -8.01 143.59 -8.01Q148.36 -8.01 151.45 -10.19Q154.55 -12.37 155.86 -16.23L167.02 -15.52Q164.89 -7.91 158.65 -3.35Q152.42 1.22 143.49 1.22ZM129.09 -31.94H156.47Q155.97 -39.14 152.32 -42.59Q148.66 -46.04 143.19 -46.04Q137.41 -46.04 133.71 -42.44Q130.01 -38.84 129.09 -31.94ZM205.45 0V-72H216.41V-41.17H249.67V-72H260.62V0H249.67V-31.23H216.41V0ZM291.04 1.22Q282.63 1.22 277.61 -2.64Q272.59 -6.49 272.59 -13.49Q272.59 -20.38 276.79 -24.34Q281 -28.29 289.83 -30.02L308.38 -33.57Q308.38 -46.04 296.72 -46.04Q291.55 -46.04 288.61 -43.71Q285.67 -41.37 284.55 -37.01L273.5 -37.72Q275.02 -45.84 281.05 -50.5Q287.09 -55.17 296.72 -55.17Q307.67 -55.17 313.4 -49.34Q319.13 -43.5 319.13 -32.96V-11.97Q319.13 -10.04 319.79 -9.28Q320.45 -8.52 321.97 -8.52H323.9V0Q322.48 0.3 319.94 0.3Q315.38 0.3 312.69 -1.57Q310.01 -3.45 309.3 -8.01V-8.32Q307.27 -4.06 302.3 -1.42Q297.33 1.22 291.04 1.22ZM292.77 -7.3Q300.07 -7.3 304.23 -11.46Q308.38 -15.62 308.38 -22.01V-25.45L292.56 -22.41Q287.7 -21.5 285.72 -19.52Q283.74 -17.54 283.74 -14.5Q283.74 -11.05 286.12 -9.18Q288.51 -7.3 292.77 -7.3ZM354.73 1.22Q347.02 1.22 341.24 -2.28Q335.46 -5.78 332.32 -12.12Q329.17 -18.46 329.17 -26.97Q329.17 -35.49 332.32 -41.83Q335.46 -48.17 341.24 -51.67Q347.02 -55.17 354.73 -55.17Q364.56 -55.17 371.05 -50.05Q377.54 -44.92 378.86 -35.59L367.61 -34.99Q366.79 -40.26 363.35 -43.05Q359.9 -45.84 354.73 -45.84Q347.93 -45.84 344.13 -40.82Q340.33 -35.8 340.33 -26.97Q340.33 -18.05 344.13 -13.08Q347.93 -8.11 354.73 -8.11Q359.9 -8.11 363.35 -11Q366.79 -13.89 367.61 -19.77L378.86 -19.17Q377.54 -9.84 371.1 -4.31Q364.66 1.22 354.73 1.22ZM388.6 0V-72H399.35V-27.28L423.58 -53.95H437.17L416.08 -31.23L437.98 0H425.61L408.88 -24.54L399.35 -14.4V0ZM504.71 1.62Q494.97 1.62 487.57 -2.89Q480.17 -7.4 476.01 -15.82Q471.85 -24.24 471.85 -35.9Q471.85 -47.46 475.96 -55.93Q480.07 -64.39 487.47 -69.01Q494.87 -73.62 504.81 -73.62Q518.2 -73.62 525.6 -66.88Q533 -60.14 535.23 -48.37L523.77 -47.76Q522.35 -55.06 517.69 -59.32Q513.03 -63.58 504.81 -63.58Q498.22 -63.58 493.4 -60.24Q488.59 -56.89 485.9 -50.7Q483.21 -44.52 483.21 -35.9Q483.21 -27.28 485.9 -21.09Q488.59 -14.91 493.45 -11.66Q498.32 -8.42 504.71 -8.42Q513.43 -8.42 518.2 -13.03Q522.96 -17.65 524.28 -25.76L535.74 -25.15Q533.71 -12.88 525.85 -5.63Q517.99 1.62 504.71 1.62ZM568.7 1.22Q560.99 1.22 555.21 -2.28Q549.43 -5.78 546.29 -12.07Q543.14 -18.35 543.14 -26.97Q543.14 -35.59 546.29 -41.88Q549.43 -48.17 555.21 -51.67Q560.99 -55.17 568.7 -55.17Q576.41 -55.17 582.19 -51.67Q587.97 -48.17 591.11 -41.88Q594.25 -35.59 594.25 -26.97Q594.25 -18.35 591.11 -12.07Q587.97 -5.78 582.19 -2.28Q576.41 1.22 568.7 1.22ZM568.7 -8.11Q575.59 -8.11 579.35 -13.08Q583.1 -18.05 583.1 -26.97Q583.1 -35.8 579.35 -40.82Q575.59 -45.84 568.7 -45.84Q561.9 -45.84 558.1 -40.82Q554.3 -35.8 554.3 -26.97Q554.3 -18.05 558.1 -13.08Q561.9 -8.11 568.7 -8.11ZM617.37 0Q612 0 608.81 -2.74Q605.61 -5.48 605.61 -11.46V-72H616.36V-12.47Q616.36 -8.82 620.11 -8.82H624.37V0ZM644.96 0Q639.58 0 636.39 -2.74Q633.19 -5.48 633.19 -11.46V-72H643.94V-12.47Q643.94 -8.82 647.7 -8.82H651.95V0ZM683.29 1.22Q675.38 1.22 669.65 -2.28Q663.92 -5.78 660.83 -12.12Q657.74 -18.46 657.74 -26.97Q657.74 -35.49 660.83 -41.83Q663.92 -48.17 669.6 -51.67Q675.28 -55.17 682.99 -55.17Q690.29 -55.17 695.86 -51.77Q701.44 -48.37 704.54 -41.98Q707.63 -35.59 707.63 -26.57V-23.83H668.89Q669.3 -15.92 673.1 -11.97Q676.9 -8.01 683.39 -8.01Q688.16 -8.01 691.25 -10.19Q694.34 -12.37 695.66 -16.23L706.82 -15.52Q704.69 -7.91 698.45 -3.35Q692.21 1.22 683.29 1.22ZM668.89 -31.94H696.27Q695.76 -39.14 692.11 -42.59Q688.46 -46.04 682.99 -46.04Q677.21 -46.04 673.5 -42.44Q669.8 -38.84 668.89 -31.94ZM740.69 1.22Q732.98 1.22 727.2 -2.28Q721.42 -5.78 718.28 -12.12Q715.13 -18.46 715.13 -26.97Q715.13 -35.49 718.28 -41.83Q721.42 -48.17 727.2 -51.67Q732.98 -55.17 740.69 -55.17Q750.52 -55.17 757.01 -50.05Q763.5 -44.92 764.82 -35.59L753.57 -34.99Q752.75 -40.26 749.31 -43.05Q745.86 -45.84 740.69 -45.84Q733.89 -45.84 730.09 -40.82Q726.29 -35.8 726.29 -26.97Q726.29 -18.05 730.09 -13.08Q733.89 -8.11 740.69 -8.11Q745.86 -8.11 749.31 -11Q752.75 -13.89 753.57 -19.77L764.82 -19.17Q763.5 -9.84 757.06 -4.31Q750.63 1.22 740.69 1.22ZM793.32 0Q785.61 0 781.96 -3.5Q778.31 -7 778.31 -14.6V-45.13H770.1V-53.95H778.31V-66.63H789.06V-53.95H803.36V-45.13H789.06V-15.41Q789.06 -11.66 790.68 -10.24Q792.3 -8.82 795.65 -8.82H803.36V0ZM812.79 0V-53.95H823.54V0ZM812.59 -61.76V-72.51H823.74V-61.76ZM852.03 0 832.36 -53.95H843.82L858.52 -10.95L873.23 -53.95H884.79L865.01 0ZM913.99 1.22Q906.08 1.22 900.35 -2.28Q894.63 -5.78 891.53 -12.12Q888.44 -18.46 888.44 -26.97Q888.44 -35.49 891.53 -41.83Q894.63 -48.17 900.3 -51.67Q905.98 -55.17 913.69 -55.17Q920.99 -55.17 926.57 -51.77Q932.15 -48.37 935.24 -41.98Q938.33 -35.59 938.33 -26.57V-23.83H899.59Q900 -15.92 903.8 -11.97Q907.61 -8.01 914.1 -8.01Q918.86 -8.01 921.95 -10.19Q925.05 -12.37 926.37 -16.23L937.52 -15.52Q935.39 -7.91 929.15 -3.35Q922.92 1.22 913.99 1.22ZM899.59 -31.94H926.97Q926.47 -39.14 922.82 -42.59Q919.17 -46.04 913.69 -46.04Q907.91 -46.04 904.21 -42.44Q900.51 -38.84 899.59 -31.94Z"/></svg>
